<?xml version="1.0" encoding="UTF-8"?>
<svg xmlns="http://www.w3.org/2000/svg" xmlns:xlink="http://www.w3.org/1999/xlink" viewBox="0 0 64 64" width="64px" height="64px">
<g id="surface28340040">
<path style=" stroke:none;fill-rule:nonzero;fill:rgb(100%,100%,100%);fill-opacity:1;" d="M 63.179688 38 C 63.179688 39.105469 62.285156 40 61.179688 40 C 60.074219 40 58.179688 39 57.179688 40 C 56.179688 41 55.285156 42 54.179688 42 C 52.722656 42 51.019531 40 49.179688 40 C 46.179688 40 43.179688 44 43.179688 48 C 43.179688 51 45.179688 55 48.179688 55 C 50.941406 55 52.179688 52.761719 52.179688 50 C 53.179688 49 54.179688 50.28125 54.179688 52 C 54.179688 55.867188 51.046875 59 47.179688 59 L 42.179688 59 C 28.371094 59 22.179688 49 21.179688 46 C 19.28125 40.308594 16.59375 40 15.179688 40 C 12.179688 40 11.285156 42 10.179688 42 C 9.074219 42 8.179688 41 7.179688 40 C 6.179688 39 4.285156 40 3.179688 40 C 2.074219 40 1.179688 39.105469 1.179688 38 C 1.179688 33 6.523438 17 8.179688 17 C 11.679688 17 10.179688 22 15.179688 22 C 18.179688 22 20.179688 20.402344 20.179688 18 C 20.179688 9 27.207031 5 32.179688 5 C 37.148438 5 44.179688 9 44.179688 18 C 44.179688 20.296875 46.179688 22 49.179688 22 C 54.179688 22 52.613281 17 56.179688 17 C 57.835938 17 63.179688 36 63.179688 38 "/>
<path style=" stroke:none;fill-rule:nonzero;fill:rgb(80.784315%,85.09804%,92.941177%);fill-opacity:1;" d="M 42.179688 59 L 47.179688 59 C 51.046875 59 54.179688 55.867188 54.179688 52 C 54.179688 50.28125 53.179688 49 52.179688 50 C 52.179688 52.761719 50.941406 55 48.179688 55 C 47.253906 55 46.421875 54.617188 45.714844 54 L 42.179688 54 C 29.882812 54 25.953125 44.515625 25.921875 44.417969 C 25.050781 41.800781 22.21875 40.382812 19.597656 41.257812 C 19.324219 41.347656 19.070312 41.472656 18.824219 41.605469 C 19.648438 42.492188 20.46875 43.867188 21.179688 46 C 22.179688 49 28.371094 59 42.179688 59 Z M 42.179688 59 "/>
<path style=" stroke:none;fill-rule:nonzero;fill:rgb(54.509807%,55.686277%,59.607846%);fill-opacity:1;" d="M 28.699219 13.058594 C 29.65625 13.609375 29.683594 15.347656 28.765625 16.945312 C 27.84375 18.539062 26.320312 19.382812 25.367188 18.828125 C 24.410156 18.277344 24.378906 16.539062 25.300781 14.945312 C 26.21875 13.347656 27.742188 12.503906 28.699219 13.058594 Z M 28.699219 13.058594 "/>
<path style=" stroke:none;fill-rule:nonzero;fill:rgb(54.509807%,55.686277%,59.607846%);fill-opacity:1;" d="M 38.71875 14.976562 C 39.632812 16.558594 39.605469 18.289062 38.652344 18.835938 C 37.703125 19.386719 36.191406 18.546875 35.28125 16.964844 C 34.367188 15.378906 34.394531 13.652344 35.34375 13.105469 C 36.292969 12.554688 37.804688 13.394531 38.71875 14.976562 Z M 38.71875 14.976562 "/>
<path style=" stroke:none;fill-rule:nonzero;fill:rgb(54.509807%,55.686277%,59.607846%);fill-opacity:1;" d="M 32.179688 26 C 34.941406 26 37.179688 29.761719 37.179688 27 C 37.179688 24.238281 34.941406 22 32.179688 22 C 29.417969 22 27.179688 24.238281 27.179688 27 C 27.179688 29.761719 29.417969 26 32.179688 26 Z M 32.179688 26 "/>
<path style=" stroke:none;fill-rule:nonzero;fill:rgb(0%,0%,0%);fill-opacity:1;" d="M 38.179688 26.996094 C 38.179688 27.386719 38.179688 28.421875 37.363281 28.851562 C 36.539062 29.292969 35.730469 28.75 34.875 28.175781 C 34.09375 27.652344 33.117188 26.996094 32.179688 26.996094 C 31.238281 26.996094 30.261719 27.652344 29.480469 28.175781 C 28.621094 28.75 27.816406 29.292969 26.992188 28.851562 C 26.179688 28.417969 26.179688 27.386719 26.179688 26.996094 C 26.179688 23.6875 28.871094 20.996094 32.179688 20.996094 C 35.488281 20.996094 38.179688 23.6875 38.179688 26.996094 Z M 28.367188 26.515625 C 29.320312 25.875 30.628906 24.996094 32.179688 24.996094 C 33.726562 24.996094 35.035156 25.875 35.988281 26.515625 C 36.046875 26.550781 36.101562 26.589844 36.160156 26.628906 C 35.976562 24.597656 34.261719 22.996094 32.179688 22.996094 C 30.097656 22.996094 28.382812 24.597656 28.195312 26.628906 C 28.253906 26.589844 28.3125 26.550781 28.367188 26.515625 Z M 22.847656 59.0625 C 22.617188 59.0625 22.382812 58.980469 22.195312 58.820312 C 21.777344 58.460938 21.730469 57.828125 22.089844 57.40625 L 23.394531 55.890625 C 23.753906 55.472656 24.386719 55.425781 24.804688 55.785156 C 25.222656 56.144531 25.269531 56.777344 24.910156 57.195312 L 23.605469 58.714844 C 23.40625 58.941406 23.128906 59.0625 22.847656 59.0625 Z M 18.800781 54.78125 C 18.5 54.78125 18.203125 54.648438 18.007812 54.390625 C 17.671875 53.949219 17.753906 53.324219 18.191406 52.988281 L 19.78125 51.773438 C 20.222656 51.4375 20.847656 51.523438 21.183594 51.960938 C 21.519531 52.398438 21.433594 53.027344 20.996094 53.363281 L 19.40625 54.578125 C 19.226562 54.714844 19.011719 54.78125 18.800781 54.78125 Z M 15.777344 49.667969 C 15.382812 49.667969 15.011719 49.433594 14.851562 49.046875 C 14.644531 48.53125 14.890625 47.949219 15.402344 47.742188 L 17.253906 46.984375 C 17.761719 46.777344 18.347656 47.023438 18.558594 47.535156 C 18.765625 48.046875 18.519531 48.628906 18.007812 48.839844 L 16.15625 49.59375 C 16.03125 49.644531 15.902344 49.667969 15.777344 49.667969 Z M 15.777344 49.667969 "/>
<path style=" stroke:none;fill-rule:nonzero;fill:rgb(0%,0%,0%);fill-opacity:1;" d="M 47.179688 60 L 42.179688 60 C 27.984375 60 21.414062 49.867188 20.230469 46.316406 C 18.457031 41 16.160156 41 15.179688 41 C 13.640625 41 12.800781 41.617188 12.058594 42.164062 C 11.5 42.574219 10.925781 43 10.179688 43 C 8.746094 43 7.710938 41.953125 6.707031 40.945312 L 6.472656 40.707031 C 6.175781 40.414062 5.316406 40.609375 4.621094 40.773438 C 4.117188 40.890625 3.640625 41 3.179688 41 C 1.523438 41 0.179688 39.652344 0.179688 38 C 0.179688 33.800781 2.84375 16 8.179688 16 C 10.371094 16 11.171875 17.492188 11.816406 18.695312 C 12.507812 19.980469 13.054688 21 15.179688 21 C 17.609375 21 19.179688 19.820312 19.179688 18 C 19.179688 8.34375 26.78125 4 32.179688 4 C 37.578125 4 45.179688 8.34375 45.179688 18 C 45.179688 19.765625 46.824219 21 49.179688 21 C 51.289062 21 51.824219 19.992188 52.503906 18.714844 C 53.144531 17.503906 53.945312 16 56.179688 16 C 57.613281 16 59.792969 17.089844 62.148438 26.507812 C 63.390625 31.464844 64.179688 36.84375 64.179688 38 C 64.179688 39.652344 62.832031 41 61.179688 41 C 60.71875 41 60.242188 40.890625 59.734375 40.773438 C 59.042969 40.609375 58.179688 40.410156 57.886719 40.707031 L 57.652344 40.945312 C 56.648438 41.953125 55.613281 43 54.179688 43 C 53.21875 43 52.324219 42.464844 51.457031 41.945312 C 50.679688 41.480469 49.875 41 49.179688 41 C 46.722656 41 44.179688 43.617188 44.179688 48 C 44.179688 50.71875 45.964844 54 48.179688 54 C 50.886719 54 51.179688 51.203125 51.179688 50 C 51.179688 49.734375 51.285156 49.480469 51.472656 49.292969 C 52.089844 48.675781 52.851562 48.488281 53.5625 48.78125 C 54.546875 49.1875 55.179688 50.453125 55.179688 52 C 55.179688 56.410156 51.589844 60 47.179688 60 Z M 15.179688 39 C 16.347656 39 19.898438 39 22.128906 45.683594 C 22.992188 48.285156 28.941406 58 42.179688 58 L 47.179688 58 C 50.488281 58 53.179688 55.308594 53.179688 52 C 53.179688 51.710938 53.144531 51.464844 53.09375 51.265625 C 52.6875 54.179688 50.847656 56 48.179688 56 C 44.460938 56 42.179688 51.339844 42.179688 48 C 42.179688 42.367188 45.738281 39 49.179688 39 C 50.429688 39 51.519531 39.652344 52.484375 40.230469 C 53.117188 40.609375 53.769531 41 54.179688 41 C 54.777344 41 55.484375 40.289062 56.230469 39.535156 L 56.472656 39.292969 C 57.550781 38.214844 59.074219 38.566406 60.1875 38.824219 C 60.5625 38.910156 60.949219 39 61.179688 39 C 61.730469 39 62.179688 38.550781 62.179688 38 C 62.179688 34.609375 58.714844 18 56.179688 18 C 55.191406 18 54.878906 18.507812 54.269531 19.652344 C 53.519531 21.066406 52.492188 23 49.179688 23 C 45.703125 23 43.179688 20.898438 43.179688 18 C 43.179688 9.722656 36.746094 6 32.179688 6 C 27.613281 6 21.179688 9.722656 21.179688 18 C 21.179688 20.945312 18.710938 23 15.179688 23 C 11.859375 23 10.816406 21.058594 10.054688 19.640625 C 9.445312 18.503906 9.132812 18 8.179688 18 C 5.601562 18 2.179688 31.722656 2.179688 38 C 2.179688 38.550781 2.628906 39 3.179688 39 C 3.410156 39 3.796875 38.910156 4.171875 38.824219 C 5.28125 38.566406 6.808594 38.214844 7.886719 39.292969 L 8.128906 39.535156 C 8.875 40.289062 9.578125 41 10.179688 41 C 10.289062 40.980469 10.628906 40.734375 10.871094 40.554688 C 11.714844 39.9375 12.984375 39 15.179688 39 Z M 15.179688 39 "/>
<path style=" stroke:none;fill-rule:nonzero;fill:rgb(0%,0%,0%);fill-opacity:1;" d="M 26.023438 19.996094 C 25.605469 19.996094 25.214844 19.898438 24.863281 19.695312 C 24.097656 19.253906 23.648438 18.378906 23.628906 17.296875 C 23.613281 16.382812 23.898438 15.367188 24.433594 14.441406 C 24.96875 13.515625 25.703125 12.761719 26.5 12.320312 C 27.449219 11.792969 28.429688 11.746094 29.199219 12.191406 C 30.65625 13.03125 30.84375 15.339844 29.628906 17.441406 C 29.09375 18.367188 28.359375 19.121094 27.5625 19.566406 C 27.046875 19.855469 26.519531 19.996094 26.023438 19.996094 Z M 28.039062 13.886719 C 27.890625 13.886719 27.683594 13.949219 27.472656 14.070312 C 26.992188 14.335938 26.519531 14.835938 26.167969 15.445312 C 25.816406 16.050781 25.621094 16.714844 25.628906 17.261719 C 25.636719 17.609375 25.726562 17.886719 25.863281 17.964844 C 26.003906 18.046875 26.289062 17.984375 26.59375 17.816406 C 27.070312 17.550781 27.546875 17.050781 27.898438 16.445312 C 28.621094 15.191406 28.503906 14.097656 28.199219 13.921875 C 28.15625 13.898438 28.105469 13.886719 28.039062 13.886719 Z M 28.039062 13.886719 "/>
<path style=" stroke:none;fill-rule:nonzero;fill:rgb(0%,0%,0%);fill-opacity:1;" d="M 38.003906 20.003906 C 37.507812 20.003906 36.984375 19.859375 36.46875 19.574219 C 35.675781 19.132812 34.945312 18.382812 34.414062 17.464844 C 33.203125 15.371094 33.394531 13.074219 34.84375 12.238281 C 36.292969 11.402344 38.378906 12.382812 39.585938 14.476562 C 40.117188 15.398438 40.398438 16.402344 40.386719 17.3125 C 40.367188 18.390625 39.917969 19.261719 39.152344 19.703125 C 38.808594 19.902344 38.414062 20.003906 38.003906 20.003906 Z M 36.007812 13.933594 C 35.941406 13.933594 35.886719 13.945312 35.84375 13.972656 C 35.542969 14.144531 35.429688 15.222656 36.144531 16.464844 C 36.492188 17.066406 36.964844 17.5625 37.4375 17.824219 C 37.738281 17.992188 38.019531 18.050781 38.152344 17.972656 C 38.289062 17.894531 38.378906 17.621094 38.386719 17.277344 C 38.394531 16.738281 38.199219 16.082031 37.851562 15.476562 C 37.234375 14.410156 36.414062 13.933594 36.007812 13.933594 Z M 36.007812 13.933594 "/>
</g>
</svg>
