<?xml version="1.0"?><svg fill="#000000" xmlns="http://www.w3.org/2000/svg"  viewBox="0 0 30 30" width="60px" height="60px">    <path d="M 14.839844 3 C 12.080882 3.0290279 9.5234744 3.8164987 7.484375 5.2480469 C 4.7655758 7.1567778 3 10.250726 3 14 C 3 15.890402 3.7427044 18.058227 4.3300781 19.595703 C 4.8808437 21.037213 6.2702957 22 7.8164062 22 L 7.8183594 22 C 7.9294628 22 8 22.07054 8 22.181641 L 8 24.515625 C 8 25.459552 8.5401993 26.317439 9.3632812 26.746094 C 10.418158 27.294991 12.310444 28 15 28 C 17.689556 28 19.581842 27.294991 20.636719 26.746094 C 21.459801 26.317439 22 25.459552 22 24.515625 L 22 22.181641 C 22 22.07054 22.07054 22 22.181641 22 L 22.1875 22 C 23.725712 22 25.111813 21.04849 25.666016 19.613281 C 26.234465 18.141697 26.946424 16.102764 26.996094 14.335938 L 26.996094 14.333984 C 27.149523 8.8455537 23.030194 4.1473532 17.654297 3.2285156 L 17.652344 3.2285156 C 16.700287 3.0659604 15.758863 2.9903307 14.839844 3 z M 14.861328 5 C 15.657754 4.9913257 16.479682 5.0562579 17.316406 5.1992188 C 21.743599 5.955147 25.120606 9.8264066 24.996094 14.279297 C 24.961764 15.500471 24.336332 17.506162 23.800781 18.892578 C 23.540984 19.565369 22.907288 20 22.1875 20 L 22.181641 20 C 20.988782 20 20 20.988741 20 22.181641 L 20 24.515625 C 20 24.709698 19.899809 24.875311 19.712891 24.972656 C 18.899767 25.395759 17.342444 26 15 26 C 12.657556 26 11.100233 25.395759 10.287109 24.972656 C 10.100191 24.875311 10 24.709698 10 24.515625 L 10 22.181641 C 10 20.988741 9.0112592 20 7.8183594 20 L 7.8164062 20 C 7.0945136 20 6.4584532 19.561303 6.1992188 18.882812 C 5.6465924 17.436289 5 15.311598 5 14 C 5 10.863274 6.3986117 8.4532847 8.6328125 6.8847656 C 10.308463 5.7083764 12.472051 5.0260229 14.861328 5 z M 11.5 12 A 2.5 3 0 0 0 9 15 A 2.5 3 0 0 0 11.5 18 A 2.5 3 0 0 0 14 15 A 2.5 3 0 0 0 11.5 12 z M 18.5 12 A 2.5 3 0 0 0 16 15 A 2.5 3 0 0 0 18.5 18 A 2.5 3 0 0 0 21 15 A 2.5 3 0 0 0 18.5 12 z M 15 17 C 15 17 14 18.448 14 19 C 14 19.552 14.448 20 15 20 C 15.552 20 16 19.552 16 19 C 16 18.448 15 17 15 17 z M 11.570312 21.185547 C 11.570312 21.185547 12.249 24 15 24 C 17.751 24 18.429688 21.185547 18.429688 21.185547 C 18.429688 21.185547 16.774 22 15 22 C 13.226 22 11.570312 21.185547 11.570312 21.185547 z"/></svg>