<svg fill="#000000" xmlns="http://www.w3.org/2000/svg"  viewBox="0 0 48 48" width="48px" height="48px"><path d="M 27.453125 6.0039062 C 26.856816 6.0164063 26.268281 6.2429688 25.800781 6.6679688 L 17.339844 14.595703 C 17.060844 14.856703 16.696453 15 16.314453 15 L 8.5 15 C 6.019 15 4 17.019 4 19.5 L 4 28.5 C 4 30.981 6.019 33 8.5 33 L 16.314453 33 C 16.696453 33 17.061844 33.14425 17.339844 33.40625 L 25.818359 41.347656 C 26.287359 41.774656 26.891953 41.998047 27.501953 41.998047 C 27.843953 41.998047 28.187719 41.927203 28.511719 41.783203 C 29.415719 41.383203 30 40.487047 30 39.498047 L 30 8.5019531 C 30 7.5129531 29.416719 6.6167969 28.511719 6.2167969 C 28.171969 6.0667969 27.81091 5.9964062 27.453125 6.0039062 z M 39.248047 11.572266 A 1.50015 1.50015 0 0 0 37.994141 13.910156 C 39.891304 16.815621 41 20.270163 41 24 C 41 27.729837 39.891304 31.184379 37.994141 34.089844 A 1.50015 1.50015 0 1 0 40.505859 35.728516 C 42.706696 32.35798 44 28.326163 44 24 C 44 19.673837 42.706696 15.64202 40.505859 12.271484 A 1.50015 1.50015 0 0 0 39.248047 11.572266 z M 35.011719 16.257812 A 1.50015 1.50015 0 0 0 33.664062 18.457031 C 34.514582 20.127695 35 22.002425 35 24 C 35 25.997575 34.514582 27.872305 33.664062 29.542969 A 1.50015 1.50015 0 1 0 36.335938 30.904297 C 37.389418 28.834961 38 26.486425 38 24 C 38 21.513575 37.389418 19.165039 36.335938 17.095703 A 1.50015 1.50015 0 0 0 35.011719 16.257812 z"/></svg>